<svg width="56" height="59" viewBox="0 0 56 59" fill="none" xmlns="http://www.w3.org/2000/svg">
<path d="M24.1437 55.5531L0.885162 10.0681C0.353501 9.02755 0.119541 7.86037 0.209089 6.69528C0.298637 5.5302 0.708211 4.41247 1.39264 3.46538C2.07707 2.51828 3.00977 1.7786 4.08788 1.32792C5.166 0.87723 6.34763 0.733045 7.50248 0.911259L50.6064 7.56379C51.5988 7.71697 52.5406 8.10351 53.3545 8.69164C54.1684 9.27976 54.8311 10.0527 55.288 10.9468C55.745 11.841 55.9832 12.8308 55.983 13.8349C55.9829 14.8391 55.7444 15.8288 55.2872 16.7228L35.4308 55.5553C34.8976 56.5929 34.0887 57.4634 33.0929 58.0711C32.0972 58.6788 30.9531 59.0002 29.7866 59C28.62 58.9998 27.4761 58.6779 26.4806 58.0698C25.4851 57.4617 24.6765 56.5909 24.1437 55.5531Z" fill="#1DACE3"/>
</svg>
